<svg width="28" height="28" viewBox="0 0 28 28" fill="none" xmlns="http://www.w3.org/2000/svg">
<path d="M5.78747 24.3056H21.9912C23.2696 24.3056 24.306 23.2692 24.306 21.9907V5.78704C24.306 4.50861 23.2696 3.47223 21.9912 3.47223H5.78747C4.50903 3.47223 3.47266 4.50861 3.47266 5.78704V21.9907C3.47266 23.2692 4.50903 24.3056 5.78747 24.3056ZM5.78747 24.3056L18.519 11.5741L24.306 17.3611M11.5745 9.83797C11.5745 10.7968 10.7972 11.5741 9.8384 11.5741C8.87957 11.5741 8.10229 10.7968 8.10229 9.83797C8.10229 8.87914 8.87957 8.10186 9.8384 8.10186C10.7972 8.10186 11.5745 8.87914 11.5745 9.83797Z" stroke="#1E1E1E" stroke-width="2.77778" stroke-linecap="round" stroke-linejoin="round"/>
</svg>
