<svg width="28" height="28" viewBox="0 0 28 28" fill="none" xmlns="http://www.w3.org/2000/svg">
<g clip-path="url(#clip0_572_2727)">
<path d="M21.9908 11.5741V13.8889C21.9908 16.0376 21.1372 18.0984 19.6178 19.6178C18.0984 21.1372 16.0377 21.9907 13.889 21.9907M13.889 21.9907C11.7402 21.9907 9.67948 21.1372 8.16009 19.6178C6.64069 18.0984 5.78711 16.0376 5.78711 13.8889V11.5741M13.889 21.9907V26.6204M9.25933 26.6204H18.5186M13.889 1.15741C12.9681 1.15741 12.0849 1.52323 11.4337 2.1744C10.7826 2.82557 10.4167 3.70874 10.4167 4.62963V13.8889C10.4167 14.8098 10.7826 15.693 11.4337 16.3441C12.0849 16.9953 12.9681 17.3611 13.889 17.3611C14.8099 17.3611 15.693 16.9953 16.3442 16.3441C16.9954 15.693 17.3612 14.8098 17.3612 13.8889V4.62963C17.3612 3.70874 16.9954 2.82557 16.3442 2.1744C15.693 1.52323 14.8099 1.15741 13.889 1.15741Z" stroke="#1E1E1E" stroke-width="2.77778" stroke-linecap="round" stroke-linejoin="round"/>
</g>
<defs>
<clipPath id="clip0_572_2727">
<rect width="27.7778" height="27.7778" fill="white"/>
</clipPath>
</defs>
</svg>
