<svg width="27" height="27" viewBox="0 0 27 27" fill="none" xmlns="http://www.w3.org/2000/svg">
<g clip-path="url(#clip0_583_2850)">
<path d="M13.2659 16.5823C15.0975 16.5823 16.5823 15.0975 16.5823 13.2659C16.5823 11.4342 15.0975 9.9494 13.2659 9.9494C11.4342 9.9494 9.9494 11.4342 9.9494 13.2659C9.9494 15.0975 11.4342 16.5823 13.2659 16.5823Z" stroke="#1E1E1E" stroke-width="2.12254" stroke-linecap="round" stroke-linejoin="round"/>
<path d="M21.4465 16.5823C21.2993 16.9158 21.2555 17.2857 21.3205 17.6443C21.3855 18.0029 21.5565 18.3338 21.8113 18.5943L21.8776 18.6607C22.0832 18.866 22.2463 19.1099 22.3576 19.3783C22.4688 19.6467 22.5261 19.9344 22.5261 20.2249C22.5261 20.5155 22.4688 20.8032 22.3576 21.0716C22.2463 21.34 22.0832 21.5839 21.8776 21.7892C21.6723 21.9948 21.4285 22.1579 21.1601 22.2691C20.8916 22.3804 20.6039 22.4377 20.3134 22.4377C20.0228 22.4377 19.7351 22.3804 19.4667 22.2691C19.1983 22.1579 18.9544 21.9948 18.7491 21.7892L18.6828 21.7229C18.4222 21.468 18.0913 21.2971 17.7327 21.232C17.3741 21.167 17.0042 21.2109 16.6708 21.3581C16.3438 21.4982 16.065 21.7309 15.8685 22.0275C15.6721 22.3241 15.5667 22.6716 15.5653 23.0274V23.2153C15.5653 23.8017 15.3324 24.3641 14.9177 24.7787C14.5031 25.1933 13.9407 25.4263 13.3543 25.4263C12.7679 25.4263 12.2056 25.1933 11.7909 24.7787C11.3763 24.3641 11.1433 23.8017 11.1433 23.2153V23.1158C11.1348 22.7499 11.0163 22.395 10.8034 22.0973C10.5905 21.7996 10.2929 21.5728 9.9494 21.4465C9.61596 21.2993 9.24609 21.2555 8.88748 21.3205C8.52886 21.3855 8.19795 21.5565 7.9374 21.8113L7.87107 21.8776C7.66573 22.0832 7.42189 22.2463 7.15348 22.3576C6.88507 22.4688 6.59736 22.5261 6.3068 22.5261C6.01625 22.5261 5.72854 22.4688 5.46013 22.3576C5.19172 22.2463 4.94788 22.0832 4.74253 21.8776C4.53697 21.6723 4.37389 21.4285 4.26262 21.1601C4.15135 20.8916 4.09408 20.6039 4.09408 20.3134C4.09408 20.0228 4.15135 19.7351 4.26262 19.4667C4.37389 19.1983 4.53697 18.9544 4.74253 18.7491L4.80886 18.6828C5.06372 18.4222 5.23468 18.0913 5.29971 17.7327C5.36473 17.3741 5.32083 17.0042 5.17368 16.6708C5.03354 16.3438 4.80086 16.065 4.50426 15.8685C4.20767 15.6721 3.86012 15.5667 3.50438 15.5653H3.31645C2.73006 15.5653 2.16769 15.3324 1.75305 14.9177C1.33841 14.5031 1.10547 13.9407 1.10547 13.3543C1.10547 12.7679 1.33841 12.2056 1.75305 11.7909C2.16769 11.3763 2.73006 11.1433 3.31645 11.1433H3.41595C3.78186 11.1348 4.13673 11.0163 4.43443 10.8034C4.73214 10.5905 4.9589 10.2929 5.08524 9.9494C5.23239 9.61596 5.27629 9.24609 5.21127 8.88748C5.14624 8.52886 4.97528 8.19795 4.72042 7.9374L4.6541 7.87107C4.44853 7.66573 4.28545 7.42189 4.17418 7.15348C4.06291 6.88507 4.00564 6.59736 4.00564 6.3068C4.00564 6.01625 4.06291 5.72854 4.17418 5.46013C4.28545 5.19172 4.44853 4.94788 4.6541 4.74253C4.85944 4.53697 5.10328 4.37389 5.37169 4.26262C5.6401 4.15135 5.92781 4.09408 6.21837 4.09408C6.50892 4.09408 6.79663 4.15135 7.06504 4.26262C7.33345 4.37389 7.57729 4.53697 7.78264 4.74253L7.84896 4.80886C8.10951 5.06372 8.44042 5.23468 8.79904 5.29971C9.15765 5.36473 9.52753 5.32083 9.86096 5.17368H9.9494C10.2764 5.03354 10.5552 4.80086 10.7516 4.50426C10.9481 4.20767 11.0535 3.86012 11.0549 3.50438V3.31645C11.0549 2.73006 11.2878 2.16769 11.7025 1.75305C12.1171 1.33841 12.6795 1.10547 13.2659 1.10547C13.8523 1.10547 14.4146 1.33841 14.8293 1.75305C15.2439 2.16769 15.4769 2.73006 15.4769 3.31645V3.41595C15.4783 3.77168 15.5837 4.11923 15.7801 4.41582C15.9765 4.71242 16.2554 4.9451 16.5823 5.08524C16.9158 5.23239 17.2857 5.27629 17.6443 5.21127C18.0029 5.14624 18.3338 4.97528 18.5943 4.72042L18.6607 4.6541C18.866 4.44853 19.1099 4.28545 19.3783 4.17418C19.6467 4.06291 19.9344 4.00564 20.2249 4.00564C20.5155 4.00564 20.8032 4.06291 21.0716 4.17418C21.34 4.28545 21.5839 4.44853 21.7892 4.6541C21.9948 4.85944 22.1579 5.10328 22.2691 5.37169C22.3804 5.6401 22.4377 5.92781 22.4377 6.21837C22.4377 6.50892 22.3804 6.79663 22.2691 7.06504C22.1579 7.33345 21.9948 7.57729 21.7892 7.78264L21.7229 7.84896C21.468 8.10951 21.2971 8.44042 21.232 8.79904C21.167 9.15765 21.2109 9.52753 21.3581 9.86096V9.9494C21.4982 10.2764 21.7309 10.5552 22.0275 10.7516C22.3241 10.9481 22.6716 11.0535 23.0274 11.0549H23.2153C23.8017 11.0549 24.3641 11.2878 24.7787 11.7025C25.1933 12.1171 25.4263 12.6795 25.4263 13.2659C25.4263 13.8523 25.1933 14.4146 24.7787 14.8293C24.3641 15.2439 23.8017 15.4769 23.2153 15.4769H23.1158C22.7601 15.4783 22.4125 15.5837 22.1159 15.7801C21.8193 15.9765 21.5866 16.2554 21.4465 16.5823Z" stroke="#1E1E1E" stroke-width="2.12254" stroke-linecap="round" stroke-linejoin="round"/>
</g>
<defs>
<clipPath id="clip0_583_2850">
<rect width="26.5318" height="26.5318" fill="white"/>
</clipPath>
</defs>
</svg>
